<svg width="309" height="109" viewBox="0 0 309 109" fill="none" xmlns="http://www.w3.org/2000/svg">
<rect y="3" width="309" height="106" rx="8" fill="url(#paint0_linear_1208_507)"/>
<path d="M118.688 25.3281V33.6562H117.203V30.1094H114.594V28.8906H117.203V25.3281H118.688ZM114 34.0469C116.938 34.0469 118.734 35.0156 118.734 36.6875C118.734 38.3594 116.938 39.3125 114 39.3281C111.062 39.3125 109.25 38.3594 109.266 36.6875C109.25 35.0156 111.062 34.0469 114 34.0469ZM114 35.2031C111.953 35.2031 110.734 35.7344 110.734 36.6875C110.734 37.625 111.953 38.1719 114 38.1562C116.047 38.1719 117.266 37.625 117.266 36.6875C117.266 35.7344 116.047 35.2031 114 35.2031ZM112.031 27.7969C112.031 29.5781 113.297 31.2969 115.406 32.0156L114.641 33.1875C113.07 32.6406 111.914 31.5234 111.312 30.1406C110.695 31.7109 109.469 32.9688 107.797 33.5781L107.016 32.3906C109.188 31.6406 110.516 29.75 110.516 27.8125V27.5H107.484V26.2969H115.031V27.5H112.031V27.7969ZM131.75 25.3281V30.9062H133.922V32.1406H131.75V39.3125H130.266V25.3281H131.75ZM128.094 26.7969C128.078 30.8438 126.297 34.4531 121.688 36.7344L120.859 35.5781C124.367 33.8281 126.273 31.2969 126.578 28.0312H121.562V26.7969H128.094ZM143.359 26.6875V38H141.625V28.4062H141.562L138.859 30.1719V28.5312L141.672 26.6875H143.359ZM145.984 35.7969V34.4062L150.984 26.6875H153.109V34.3438H154.656V35.7969H153.109V38H151.484V35.7969H145.984ZM147.797 34.3438H151.484V28.7344H151.359L147.797 34.25V34.3438ZM158 36.9219L156.75 41.2344H155.422L156.25 36.9219H158ZM164 26.5312C166.078 26.5469 168.266 27.7969 168.266 31.9375C168.266 35.9062 166.562 38.1562 163.844 38.1562C161.766 38.1562 160.297 36.875 160.031 35.0312H161.734C161.969 35.9844 162.703 36.6562 163.844 36.6562C165.594 36.6562 166.609 35.125 166.625 32.5469H166.484C165.875 33.5 164.812 34.0781 163.594 34.0781C161.562 34.0781 159.938 32.5312 159.938 30.3594C159.938 28.2031 161.547 26.5156 164 26.5312ZM164 27.9688C162.625 27.9688 161.609 29.0312 161.609 30.3281C161.609 31.6406 162.594 32.6719 163.969 32.6719C165.328 32.6719 166.391 31.5625 166.391 30.3125C166.391 29.0938 165.391 27.9688 164 27.9688ZM174.016 38.1562C171.391 38.1562 169.859 36.0469 169.859 32.3438C169.859 28.6719 171.422 26.5312 174.016 26.5312C176.609 26.5312 178.172 28.6719 178.172 32.3438C178.172 36.0469 176.625 38.1562 174.016 38.1562ZM174.016 36.6719C175.547 36.6719 176.453 35.1719 176.453 32.3438C176.453 29.5312 175.531 27.9844 174.016 27.9844C172.5 27.9844 171.578 29.5312 171.578 32.3438C171.578 35.1719 172.484 36.6719 174.016 36.6719ZM183.891 38.1562C181.266 38.1562 179.734 36.0469 179.734 32.3438C179.734 28.6719 181.297 26.5312 183.891 26.5312C186.484 26.5312 188.047 28.6719 188.047 32.3438C188.047 36.0469 186.5 38.1562 183.891 38.1562ZM183.891 36.6719C185.422 36.6719 186.328 35.1719 186.328 32.3438C186.328 29.5312 185.406 27.9844 183.891 27.9844C182.375 27.9844 181.453 29.5312 181.453 32.3438C181.453 35.1719 182.359 36.6719 183.891 36.6719ZM200.984 25.3438V35.9531H199.5V34.6094H196.688V33.5625H199.5V25.3438H200.984ZM201.328 37.8281V39.0312H191.219V34.9219H192.688V37.8281H201.328ZM189.281 31.7344C191.875 31.7188 195.359 31.6875 198.344 31.3125L198.438 32.375C197.242 32.5703 195.984 32.7031 194.75 32.7812V35.5156H193.266V32.8594C191.906 32.9219 190.602 32.9297 189.469 32.9219L189.281 31.7344ZM193.859 25.875C195.906 25.875 197.328 26.8594 197.328 28.3438C197.328 29.8281 195.906 30.7812 193.859 30.7812C191.781 30.7812 190.375 29.8281 190.375 28.3438C190.375 26.8594 191.781 25.875 193.859 25.875ZM193.859 26.9844C192.609 26.9688 191.766 27.5 191.781 28.3438C191.766 29.1719 192.609 29.6875 193.859 29.6875C195.062 29.6875 195.906 29.1719 195.922 28.3438C195.906 27.5 195.062 26.9688 193.859 26.9844Z" fill="#8A95BC"/>
<path d="M106.5 32.9062H202.656V34.1172H106.5V32.9062Z" fill="#8A95BC"/>
<path d="M56.8203 50.6602V65.0703H53.3203V64.2773H48.8086V62.1719H53.3203V50.6602H56.8203ZM35.7383 59.4102C40.5508 59.4375 46.5117 59.3828 51.8438 58.8906L52.0078 61.0508C49.8066 61.3516 47.5508 61.543 45.3359 61.6523V65.125H41.8906V61.7891C39.8535 61.8438 37.8984 61.8438 36.0938 61.8164L35.7383 59.4102ZM56.8203 65.8086V71.6328H42.8203V72.918H57.3945V75.3516H39.4023V69.3906H53.3477V68.1602H39.293V65.8086H56.8203ZM43.75 50.9883C47.4414 50.9883 49.9844 52.4922 50.0117 54.7344C49.9844 57.0586 47.4414 58.4531 43.75 58.4531C39.9492 58.4531 37.4336 57.0586 37.4336 54.7344C37.4336 52.4922 39.9492 50.9883 43.75 50.9883ZM43.75 53.2852C41.8633 53.2578 40.7148 53.832 40.7422 54.7344C40.7148 55.6641 41.8633 56.1836 43.75 56.1836C45.582 56.1836 46.7578 55.6641 46.7578 54.7344C46.7578 53.832 45.582 53.2578 43.75 53.2852ZM79.6797 50.6328V57.6055H83.043V60.4766H79.6797V68.4609H76.1523V50.6328H79.6797ZM72.8984 52.4922C72.8984 59.2188 68.6875 63.9219 61.2227 66.0273L59.7734 63.2656C65.3379 61.707 68.4961 58.8223 69.0703 55.3359H60.8672V52.4922H72.8984ZM80.5273 72.2891V75.0781H63.4922V66.6289H67.0195V72.2891H80.5273ZM99.75 56.2656C99.7227 60.7227 101.637 65.2344 105.629 67.1484L103.523 69.9375C100.857 68.625 99.0664 66.1641 98.0273 63.1562C96.9473 66.3828 95.0195 69.0215 92.2031 70.4023L90.043 67.5859C94.2539 65.6445 96.25 60.8867 96.25 56.2656V52.5469H99.75V56.2656ZM110.223 50.6328V60.2305H113.887V63.1836H110.223V75.5156H106.723V50.6328H110.223ZM137.484 62.418V65.207H114.789V62.418H119.902V59.4375C118.084 58.6309 117.059 57.4004 117.059 55.8008C117.059 52.793 120.586 50.9883 126.137 50.9883C131.633 50.9883 135.16 52.793 135.188 55.8008C135.174 57.4141 134.107 58.6719 132.262 59.4648V62.418H137.484ZM126.109 66.5195C131.496 66.5195 134.75 68.1055 134.777 70.9766C134.75 73.9023 131.496 75.4883 126.109 75.4883C120.641 75.4883 117.387 73.9023 117.387 70.9766C117.387 68.1055 120.641 66.5195 126.109 66.5195ZM126.109 69.1445C122.664 69.1445 120.914 69.7461 120.941 70.9766C120.914 72.2617 122.664 72.8906 126.109 72.8906C129.473 72.8906 131.25 72.2617 131.277 70.9766C131.25 69.7461 129.473 69.1445 126.109 69.1445ZM126.137 53.668C122.609 53.668 120.668 54.4062 120.695 55.8008C120.668 57.168 122.609 57.8516 126.137 57.8516C129.609 57.8516 131.578 57.168 131.578 55.8008C131.578 54.4062 129.609 53.668 126.137 53.668ZM123.43 62.418H128.789V60.3398C127.969 60.4355 127.08 60.4766 126.137 60.4766C125.166 60.4766 124.264 60.4355 123.43 60.3125V62.418ZM160.262 50.6602V69.3906H156.734V66.6289H151.867V63.8945H156.734V50.6602H160.262ZM160.836 72.2891V75.0781H142.27V67.4766H145.469V62.6914C143.24 62.7871 141.121 62.8145 139.262 62.8281L138.824 60.0664C141.777 60.0527 145.414 60.0117 149.078 59.793C149.379 57.6465 149.502 55.9375 149.543 54.625H141.094V51.8633H153.043V52.793C153.043 54.0781 153.043 56.3613 152.551 59.5195C153.357 59.4375 154.164 59.3555 154.957 59.2461L155.176 61.707C153.125 62.0762 151.006 62.3223 148.914 62.4727V67.832H145.77V72.2891H160.836ZM170.133 69.5V66.2461L178.5 53.2031H183.668V66.1914H186.184V69.5H183.668V73H179.758V69.5H170.133ZM174.289 66.1914H179.812V57.7148H179.621L174.289 66.0273V66.1914ZM192.883 70.9766L190.531 78.7695H187.633L189 70.9766H192.883ZM203.602 73.2734C199.473 73.2734 196.465 70.8398 196.383 67.4219H200.375C200.457 68.9805 201.879 70.0195 203.602 70.0195C205.652 70.0195 207.102 68.5703 207.102 66.5195C207.102 64.4141 205.625 62.9648 203.547 62.9375C202.07 62.9375 201.031 63.4844 200.43 64.6055H196.711L197.777 53.2031H209.973V56.5664H201.168L200.621 61.5703H200.785C201.523 60.5859 203 59.9023 204.75 59.9023C208.387 59.9023 211.094 62.6094 211.094 66.4102C211.094 70.4023 208.059 73.2734 203.602 73.2734ZM221.566 73.2734C216.617 73.2734 213.609 69.582 213.609 63.1016C213.609 56.6211 216.617 52.9297 221.566 52.9297C226.516 52.9297 229.523 56.6484 229.523 63.1016C229.523 69.6094 226.516 73.2734 221.566 73.2734ZM221.566 69.8828C223.863 69.8828 225.34 67.668 225.312 63.1016C225.312 58.5898 223.863 56.293 221.566 56.293C219.27 56.293 217.82 58.5898 217.82 63.1016C217.793 67.668 219.27 69.8828 221.566 69.8828ZM240.051 73.2734C235.102 73.2734 232.094 69.582 232.094 63.1016C232.094 56.6211 235.102 52.9297 240.051 52.9297C245 52.9297 248.008 56.6484 248.008 63.1016C248.008 69.6094 245 73.2734 240.051 73.2734ZM240.051 69.8828C242.348 69.8828 243.824 67.668 243.797 63.1016C243.797 58.5898 242.348 56.293 240.051 56.293C237.754 56.293 236.305 58.5898 236.305 63.1016C236.277 67.668 237.754 69.8828 240.051 69.8828ZM271.113 50.6602V69.4453H267.613V67.4766H262.855V65.0977H267.613V50.6602H271.113ZM271.66 72.2891V75.0781H253.121V67.6406H256.594V64.332C254.365 64.4277 252.246 64.4414 250.359 64.4414L249.949 61.6797C254.516 61.6523 260.668 61.5977 265.918 60.9414L266.109 63.4297C264.141 63.7578 262.104 63.9902 260.094 64.1406V68.8711H256.594V72.2891H271.66ZM258.043 51.5078C261.652 51.4805 264.25 53.3125 264.25 55.9648C264.25 58.6172 261.652 60.3398 258.043 60.3398C254.352 60.3398 251.781 58.6172 251.781 55.9648C251.781 53.3125 254.324 51.4805 258.043 51.5078ZM258.043 54.0508C256.266 54.0508 255.062 54.7344 255.09 55.9648C255.062 57.168 256.266 57.8242 258.043 57.8242C259.711 57.8242 260.914 57.168 260.941 55.9648C260.914 54.7344 259.711 54.0508 258.043 54.0508Z" fill="#0E0E0E"/>
<path d="M232 2C232 0.89543 232.895 0 234 0H292C293.105 0 294 0.895431 294 2L294 35.2534C294 36.6103 292.677 37.5734 291.386 37.1568L263.614 28.1981C263.215 28.0693 262.785 28.0693 262.386 28.1981L234.614 37.1568C233.323 37.5734 232 36.6103 232 35.2534L232 2Z" fill="#CDAF64"/>
<path opacity="0.5" d="M246.855 13.7227V15.5684H241.125V13.7227H246.855ZM249.035 21L254.555 10.2773V10.1895H248.156V8.27344H256.928V10.2246L251.408 21H249.035ZM263.186 21.1758C260.127 21.1758 258.299 18.8027 258.299 14.6367C258.299 10.4883 260.127 8.09766 263.186 8.09766C266.227 8.09766 268.072 10.4883 268.072 14.6367C268.072 18.8027 266.244 21.1758 263.186 21.1758ZM263.186 19.2598C264.785 19.2598 265.77 17.6953 265.77 14.6367C265.77 11.5957 264.768 9.99609 263.186 9.99609C261.604 9.99609 260.602 11.5957 260.602 14.6367C260.602 17.6953 261.586 19.2598 263.186 19.2598ZM273.117 14.4785C271.307 14.4785 270.322 13.1426 270.322 11.1914C270.322 9.25781 271.342 7.92188 273.117 7.92188C274.963 7.92188 275.93 9.25781 275.93 11.1914C275.93 13.1602 274.928 14.4785 273.117 14.4785ZM273.117 13.0723C273.908 13.0723 274.295 12.334 274.295 11.1914C274.295 10.084 273.943 9.31055 273.117 9.32812C272.344 9.32812 271.939 10.084 271.939 11.1914C271.939 12.334 272.344 13.0723 273.117 13.0723ZM281.432 21.334C279.621 21.3516 278.637 19.998 278.637 18.0645C278.637 16.1133 279.656 14.7773 281.432 14.7773C283.26 14.7773 284.244 16.1133 284.244 18.0645C284.244 20.0156 283.242 21.3516 281.432 21.334ZM281.432 19.9277C282.24 19.9277 282.609 19.1895 282.609 18.0645C282.609 16.9395 282.258 16.166 281.432 16.1836C280.658 16.1836 280.254 16.957 280.254 18.0645C280.254 19.1895 280.658 19.9277 281.432 19.9277ZM271.957 21L280.711 8.27344H282.486L273.732 21H271.957Z" fill="black"/>
<defs>
<linearGradient id="paint0_linear_1208_507" x1="309" y1="56" x2="0" y2="56" gradientUnits="userSpaceOnUse">
<stop stop-color="#F2EACC"/>
<stop offset="1" stop-color="#C5D1FF"/>
</linearGradient>
</defs>
</svg>
