<svg width="309" height="109" viewBox="0 0 309 109" fill="none" xmlns="http://www.w3.org/2000/svg">
<rect y="3" width="309" height="106" rx="8" fill="url(#paint0_linear_1379_1278)"/>
<path d="M122.188 25.3281V33.6562H120.703V30.1094H118.094V28.8906H120.703V25.3281H122.188ZM117.5 34.0469C120.438 34.0469 122.234 35.0156 122.234 36.6875C122.234 38.3594 120.438 39.3125 117.5 39.3281C114.562 39.3125 112.75 38.3594 112.766 36.6875C112.75 35.0156 114.562 34.0469 117.5 34.0469ZM117.5 35.2031C115.453 35.2031 114.234 35.7344 114.234 36.6875C114.234 37.625 115.453 38.1719 117.5 38.1562C119.547 38.1719 120.766 37.625 120.766 36.6875C120.766 35.7344 119.547 35.2031 117.5 35.2031ZM115.531 27.7969C115.531 29.5781 116.797 31.2969 118.906 32.0156L118.141 33.1875C116.57 32.6406 115.414 31.5234 114.812 30.1406C114.195 31.7109 112.969 32.9688 111.297 33.5781L110.516 32.3906C112.688 31.6406 114.016 29.75 114.016 27.8125V27.5H110.984V26.2969H118.531V27.5H115.531V27.7969ZM135.25 25.3281V30.9062H137.422V32.1406H135.25V39.3125H133.766V25.3281H135.25ZM131.594 26.7969C131.578 30.8438 129.797 34.4531 125.188 36.7344L124.359 35.5781C127.867 33.8281 129.773 31.2969 130.078 28.0312H125.062V26.7969H131.594ZM142.312 35.7969V34.4062L147.312 26.6875H149.438V34.3438H150.984V35.7969H149.438V38H147.812V35.7969H142.312ZM144.125 34.3438H147.812V28.7344H147.688L144.125 34.25V34.3438ZM154.328 36.9219L153.078 41.2344H151.75L152.578 36.9219H154.328ZM160.328 26.5312C162.406 26.5469 164.594 27.7969 164.594 31.9375C164.594 35.9062 162.891 38.1562 160.172 38.1562C158.094 38.1562 156.625 36.875 156.359 35.0312H158.062C158.297 35.9844 159.031 36.6562 160.172 36.6562C161.922 36.6562 162.938 35.125 162.953 32.5469H162.812C162.203 33.5 161.141 34.0781 159.922 34.0781C157.891 34.0781 156.266 32.5312 156.266 30.3594C156.266 28.2031 157.875 26.5156 160.328 26.5312ZM160.328 27.9688C158.953 27.9688 157.938 29.0312 157.938 30.3281C157.938 31.6406 158.922 32.6719 160.297 32.6719C161.656 32.6719 162.719 31.5625 162.719 30.3125C162.719 29.0938 161.719 27.9688 160.328 27.9688ZM170.344 38.1562C167.719 38.1562 166.188 36.0469 166.188 32.3438C166.188 28.6719 167.75 26.5312 170.344 26.5312C172.938 26.5312 174.5 28.6719 174.5 32.3438C174.5 36.0469 172.953 38.1562 170.344 38.1562ZM170.344 36.6719C171.875 36.6719 172.781 35.1719 172.781 32.3438C172.781 29.5312 171.859 27.9844 170.344 27.9844C168.828 27.9844 167.906 29.5312 167.906 32.3438C167.906 35.1719 168.812 36.6719 170.344 36.6719ZM180.219 38.1562C177.594 38.1562 176.062 36.0469 176.062 32.3438C176.062 28.6719 177.625 26.5312 180.219 26.5312C182.812 26.5312 184.375 28.6719 184.375 32.3438C184.375 36.0469 182.828 38.1562 180.219 38.1562ZM180.219 36.6719C181.75 36.6719 182.656 35.1719 182.656 32.3438C182.656 29.5312 181.734 27.9844 180.219 27.9844C178.703 27.9844 177.781 29.5312 177.781 32.3438C177.781 35.1719 178.688 36.6719 180.219 36.6719ZM197.312 25.3438V35.9531H195.828V34.6094H193.016V33.5625H195.828V25.3438H197.312ZM197.656 37.8281V39.0312H187.547V34.9219H189.016V37.8281H197.656ZM185.609 31.7344C188.203 31.7188 191.688 31.6875 194.672 31.3125L194.766 32.375C193.57 32.5703 192.312 32.7031 191.078 32.7812V35.5156H189.594V32.8594C188.234 32.9219 186.93 32.9297 185.797 32.9219L185.609 31.7344ZM190.188 25.875C192.234 25.875 193.656 26.8594 193.656 28.3438C193.656 29.8281 192.234 30.7812 190.188 30.7812C188.109 30.7812 186.703 29.8281 186.703 28.3438C186.703 26.8594 188.109 25.875 190.188 25.875ZM190.188 26.9844C188.938 26.9688 188.094 27.5 188.109 28.3438C188.094 29.1719 188.938 29.6875 190.188 29.6875C191.391 29.6875 192.234 29.1719 192.25 28.3438C192.234 27.5 191.391 26.9688 190.188 26.9844Z" fill="#8A95BC"/>
<path d="M110 32.9062H198.984V34.1172H110V32.9062Z" fill="#8A95BC"/>
<path d="M43.3203 51.3711C47.0938 51.3711 49.9648 53.7227 49.9648 57.0586C49.9648 60.3398 47.0938 62.7188 43.3203 62.7188C39.4648 62.7188 36.6211 60.3398 36.6211 57.0586C36.6211 53.7227 39.4648 51.3711 43.3203 51.3711ZM43.3203 54.2148C41.4062 54.2148 39.9844 55.2539 40.0117 57.0586C39.9844 58.8359 41.4062 59.9023 43.3203 59.9023C45.207 59.9023 46.6016 58.8359 46.6016 57.0586C46.6016 55.2539 45.207 54.2148 43.3203 54.2148ZM57.0742 50.6328V63.1016H53.5742V50.6328H57.0742ZM57.0742 64.1406V70.8945H43.8398V72.5078H57.7578V75.2422H40.4219V68.3516H53.6016V66.8203H40.3672V64.1406H57.0742ZM67.5195 51.3711C71.293 51.3711 74.1641 53.7227 74.1641 57.0586C74.1641 60.3398 71.293 62.7188 67.5195 62.7188C63.6641 62.7188 60.8203 60.3398 60.8203 57.0586C60.8203 53.7227 63.6641 51.3711 67.5195 51.3711ZM67.5195 54.2148C65.6055 54.2148 64.1836 55.2539 64.2109 57.0586C64.1836 58.8359 65.6055 59.9023 67.5195 59.9023C69.4062 59.9023 70.8008 58.8359 70.8008 57.0586C70.8008 55.2539 69.4062 54.2148 67.5195 54.2148ZM81.2734 50.6328V63.1016H77.7734V50.6328H81.2734ZM81.2734 64.1406V70.8945H68.0391V72.5078H81.957V75.2422H64.6211V68.3516H77.8008V66.8203H64.5664V64.1406H81.2734ZM100.25 56.2656C100.223 60.7227 102.137 65.2344 106.129 67.1484L104.023 69.9375C101.357 68.625 99.5664 66.1641 98.5273 63.1562C97.4473 66.3828 95.5195 69.0215 92.7031 70.4023L90.543 67.5859C94.7539 65.6445 96.75 60.8867 96.75 56.2656V52.5469H100.25V56.2656ZM110.723 50.6328V60.2305H114.387V63.1836H110.723V75.5156H107.223V50.6328H110.723ZM137.984 62.418V65.207H115.289V62.418H120.402V59.4375C118.584 58.6309 117.559 57.4004 117.559 55.8008C117.559 52.793 121.086 50.9883 126.637 50.9883C132.133 50.9883 135.66 52.793 135.688 55.8008C135.674 57.4141 134.607 58.6719 132.762 59.4648V62.418H137.984ZM126.609 66.5195C131.996 66.5195 135.25 68.1055 135.277 70.9766C135.25 73.9023 131.996 75.4883 126.609 75.4883C121.141 75.4883 117.887 73.9023 117.887 70.9766C117.887 68.1055 121.141 66.5195 126.609 66.5195ZM126.609 69.1445C123.164 69.1445 121.414 69.7461 121.441 70.9766C121.414 72.2617 123.164 72.8906 126.609 72.8906C129.973 72.8906 131.75 72.2617 131.777 70.9766C131.75 69.7461 129.973 69.1445 126.609 69.1445ZM126.637 53.668C123.109 53.668 121.168 54.4062 121.195 55.8008C121.168 57.168 123.109 57.8516 126.637 57.8516C130.109 57.8516 132.078 57.168 132.078 55.8008C132.078 54.4062 130.109 53.668 126.637 53.668ZM123.93 62.418H129.289V60.3398C128.469 60.4355 127.58 60.4766 126.637 60.4766C125.666 60.4766 124.764 60.4355 123.93 60.3125V62.418ZM160.762 50.6602V69.3906H157.234V66.6289H152.367V63.8945H157.234V50.6602H160.762ZM161.336 72.2891V75.0781H142.77V67.4766H145.969V62.6914C143.74 62.7871 141.621 62.8145 139.762 62.8281L139.324 60.0664C142.277 60.0527 145.914 60.0117 149.578 59.793C149.879 57.6465 150.002 55.9375 150.043 54.625H141.594V51.8633H153.543V52.793C153.543 54.0781 153.543 56.3613 153.051 59.5195C153.857 59.4375 154.664 59.3555 155.457 59.2461L155.676 61.707C153.625 62.0762 151.506 62.3223 149.414 62.4727V67.832H146.27V72.2891H161.336ZM170.961 73L170.934 70.0195L178.043 63.4844C179.902 61.707 180.887 60.6133 180.887 59.0547C180.887 57.3047 179.547 56.2109 177.742 56.2109C175.883 56.2109 174.68 57.3867 174.68 59.2734H170.77C170.742 55.3906 173.613 52.9297 177.797 52.9297C182.035 52.9297 184.852 55.3359 184.852 58.7812C184.852 61.0234 183.758 62.8828 179.684 66.5742L176.676 69.5V69.6094H185.125V73H170.961ZM192.48 70.9766L190.129 78.7695H187.23L188.598 70.9766H192.48ZM196.09 73L196.062 70.0195L203.172 63.4844C205.031 61.707 206.016 60.6133 206.016 59.0547C206.016 57.3047 204.676 56.2109 202.871 56.2109C201.012 56.2109 199.809 57.3867 199.809 59.2734H195.898C195.871 55.3906 198.742 52.9297 202.926 52.9297C207.164 52.9297 209.98 55.3359 209.98 58.7812C209.98 61.0234 208.887 62.8828 204.812 66.5742L201.805 69.5V69.6094H210.254V73H196.09ZM220.863 73.2734C215.914 73.2734 212.906 69.582 212.906 63.1016C212.906 56.6211 215.914 52.9297 220.863 52.9297C225.812 52.9297 228.82 56.6484 228.82 63.1016C228.82 69.6094 225.812 73.2734 220.863 73.2734ZM220.863 69.8828C223.16 69.8828 224.637 67.668 224.609 63.1016C224.609 58.5898 223.16 56.293 220.863 56.293C218.566 56.293 217.117 58.5898 217.117 63.1016C217.09 67.668 218.566 69.8828 220.863 69.8828ZM239.348 73.2734C234.398 73.2734 231.391 69.582 231.391 63.1016C231.391 56.6211 234.398 52.9297 239.348 52.9297C244.297 52.9297 247.305 56.6484 247.305 63.1016C247.305 69.6094 244.297 73.2734 239.348 73.2734ZM239.348 69.8828C241.645 69.8828 243.121 67.668 243.094 63.1016C243.094 58.5898 241.645 56.293 239.348 56.293C237.051 56.293 235.602 58.5898 235.602 63.1016C235.574 67.668 237.051 69.8828 239.348 69.8828ZM270.41 50.6602V69.4453H266.91V67.4766H262.152V65.0977H266.91V50.6602H270.41ZM270.957 72.2891V75.0781H252.418V67.6406H255.891V64.332C253.662 64.4277 251.543 64.4414 249.656 64.4414L249.246 61.6797C253.812 61.6523 259.965 61.5977 265.215 60.9414L265.406 63.4297C263.438 63.7578 261.4 63.9902 259.391 64.1406V68.8711H255.891V72.2891H270.957ZM257.34 51.5078C260.949 51.4805 263.547 53.3125 263.547 55.9648C263.547 58.6172 260.949 60.3398 257.34 60.3398C253.648 60.3398 251.078 58.6172 251.078 55.9648C251.078 53.3125 253.621 51.4805 257.34 51.5078ZM257.34 54.0508C255.562 54.0508 254.359 54.7344 254.387 55.9648C254.359 57.168 255.562 57.8242 257.34 57.8242C259.008 57.8242 260.211 57.168 260.238 55.9648C260.211 54.7344 259.008 54.0508 257.34 54.0508Z" fill="#0E0E0E"/>
<path d="M232 2C232 0.89543 232.895 0 234 0H292C293.105 0 294 0.895431 294 2L294 35.2534C294 36.6103 292.677 37.5734 291.386 37.1568L263.614 28.1981C263.215 28.0693 262.785 28.0693 262.386 28.1981L234.614 37.1568C233.323 37.5734 232 36.6103 232 35.2534L232 2Z" fill="#CDAF64"/>
<path opacity="0.5" d="M246.855 13.7227V15.5684H241.125V13.7227H246.855ZM253.553 21.1758C251.004 21.1758 249.141 19.6641 249.07 17.5547H251.303C251.373 18.5918 252.34 19.3301 253.553 19.3301C254.977 19.3301 255.996 18.293 255.996 16.8867C255.996 15.4277 254.941 14.3906 253.482 14.3906C252.498 14.373 251.777 14.7246 251.373 15.4805H249.246L250.02 8.27344H257.543V10.1895H251.9L251.514 13.5645H251.637C252.129 13.002 253.061 12.5977 254.098 12.5977C256.471 12.5977 258.211 14.373 258.211 16.8164C258.211 19.3652 256.295 21.1758 253.553 21.1758ZM264.662 21.1758C262.113 21.1758 260.25 19.6641 260.18 17.5547H262.412C262.482 18.5918 263.449 19.3301 264.662 19.3301C266.086 19.3301 267.105 18.293 267.105 16.8867C267.105 15.4277 266.051 14.3906 264.592 14.3906C263.607 14.373 262.887 14.7246 262.482 15.4805H260.355L261.129 8.27344H268.652V10.1895H263.01L262.623 13.5645H262.746C263.238 13.002 264.17 12.5977 265.207 12.5977C267.58 12.5977 269.32 14.373 269.32 16.8164C269.32 19.3652 267.404 21.1758 264.662 21.1758ZM274.383 14.4785C272.572 14.4785 271.588 13.1426 271.588 11.1914C271.588 9.25781 272.607 7.92188 274.383 7.92188C276.229 7.92188 277.195 9.25781 277.195 11.1914C277.195 13.1602 276.193 14.4785 274.383 14.4785ZM274.383 13.0723C275.174 13.0723 275.561 12.334 275.561 11.1914C275.561 10.084 275.209 9.31055 274.383 9.32812C273.609 9.32812 273.205 10.084 273.205 11.1914C273.205 12.334 273.609 13.0723 274.383 13.0723ZM282.697 21.334C280.887 21.3516 279.902 19.998 279.902 18.0645C279.902 16.1133 280.922 14.7773 282.697 14.7773C284.525 14.7773 285.51 16.1133 285.51 18.0645C285.51 20.0156 284.508 21.3516 282.697 21.334ZM282.697 19.9277C283.506 19.9277 283.875 19.1895 283.875 18.0645C283.875 16.9395 283.523 16.166 282.697 16.1836C281.924 16.1836 281.52 16.957 281.52 18.0645C281.52 19.1895 281.924 19.9277 282.697 19.9277ZM273.223 21L281.977 8.27344H283.752L274.998 21H273.223Z" fill="black"/>
<defs>
<linearGradient id="paint0_linear_1379_1278" x1="309" y1="56" x2="0" y2="56" gradientUnits="userSpaceOnUse">
<stop stop-color="#F2EACC"/>
<stop offset="1" stop-color="#C5D1FF"/>
</linearGradient>
</defs>
</svg>
