<svg width="376" height="237" viewBox="0 0 376 237" fill="none" xmlns="http://www.w3.org/2000/svg">
<rect width="376" height="237" fill="#1A1B1E"/>
<rect x="21" y="8" width="10" height="12" rx="2" fill="#28282F"/>
<rect x="39" y="8" width="10" height="12" rx="2" fill="#28282F"/>
<rect x="57" y="8" width="10" height="12" rx="2" fill="#28282F"/>
<rect x="75" y="8" width="10" height="12" rx="2" fill="#28282F"/>
<rect x="93" y="8" width="10" height="12" rx="2" fill="#28282F"/>
<rect x="111" y="8" width="10" height="12" rx="2" fill="#28282F"/>
<rect x="129" y="8" width="10" height="12" rx="2" fill="#28282F"/>
<rect x="147" y="8" width="10" height="12" rx="2" fill="#28282F"/>
<rect x="165" y="8" width="10" height="12" rx="2" fill="#28282F"/>
<rect x="183" y="8" width="10" height="12" rx="2" fill="#28282F"/>
<rect x="201" y="8" width="10" height="12" rx="2" fill="#28282F"/>
<rect x="219" y="8" width="10" height="12" rx="2" fill="#28282F"/>
<rect x="237" y="8" width="10" height="12" rx="2" fill="#28282F"/>
<rect x="255" y="8" width="10" height="12" rx="2" fill="#28282F"/>
<rect x="273" y="8" width="10" height="12" rx="2" fill="#28282F"/>
<rect x="291" y="8" width="10" height="12" rx="2" fill="#28282F"/>
<rect x="309" y="8" width="10" height="12" rx="2" fill="#28282F"/>
<rect x="327" y="8" width="10" height="12" rx="2" fill="#28282F"/>
<rect x="345" y="8" width="10" height="12" rx="2" fill="#28282F"/>
<rect x="21" y="214" width="10" height="12" rx="2" fill="#28282F"/>
<rect x="39" y="214" width="10" height="12" rx="2" fill="#28282F"/>
<rect x="57" y="214" width="10" height="12" rx="2" fill="#28282F"/>
<rect x="75" y="214" width="10" height="12" rx="2" fill="#28282F"/>
<rect x="93" y="214" width="10" height="12" rx="2" fill="#28282F"/>
<rect x="111" y="214" width="10" height="12" rx="2" fill="#28282F"/>
<rect x="129" y="214" width="10" height="12" rx="2" fill="#28282F"/>
<rect x="147" y="214" width="10" height="12" rx="2" fill="#28282F"/>
<rect x="165" y="214" width="10" height="12" rx="2" fill="#28282F"/>
<rect x="183" y="214" width="10" height="12" rx="2" fill="#28282F"/>
<rect x="201" y="214" width="10" height="12" rx="2" fill="#28282F"/>
<rect x="219" y="214" width="10" height="12" rx="2" fill="#28282F"/>
<rect x="237" y="214" width="10" height="12" rx="2" fill="#28282F"/>
<rect x="255" y="214" width="10" height="12" rx="2" fill="#28282F"/>
<rect x="273" y="214" width="10" height="12" rx="2" fill="#28282F"/>
<rect x="291" y="214" width="10" height="12" rx="2" fill="#28282F"/>
<rect x="309" y="214" width="10" height="12" rx="2" fill="#28282F"/>
<rect x="327" y="214" width="10" height="12" rx="2" fill="#28282F"/>
<rect x="345" y="214" width="10" height="12" rx="2" fill="#28282F"/>
</svg>
