<svg width="374" height="222" viewBox="0 0 374 222" fill="none" xmlns="http://www.w3.org/2000/svg">
<path d="M410 1C382.667 1.83333 322 20.2 298 87C274 153.8 248.5 177 217.5 186L1 221" stroke="#383842" stroke-width="2" stroke-linecap="round"/>
<g filter="url(#filter0_i_1157_2530)">
<path fill-rule="evenodd" clip-rule="evenodd" d="M341.5 117C363.868 117 382 98.8675 382 76.5C382 54.1325 363.868 36 341.5 36C319.132 36 301 54.1325 301 76.5C301 98.8675 319.132 117 341.5 117ZM341.498 64.4615C347.745 64.4615 352.809 59.3974 352.809 53.1507C352.809 46.9039 347.745 41.8398 341.498 41.8398C335.252 41.8398 330.188 46.9039 330.188 53.1507C330.188 59.3974 335.252 64.4615 341.498 64.4615ZM318.877 82.7037C325.124 82.7037 330.188 77.6396 330.188 71.3928C330.188 65.1461 325.124 60.082 318.877 60.082C312.63 60.082 307.566 65.1461 307.566 71.3928C307.566 77.6396 312.63 82.7037 318.877 82.7037ZM338.944 96.9358C338.944 103.183 333.88 108.247 327.633 108.247C321.386 108.247 316.322 103.183 316.322 96.9358C316.322 90.689 321.386 85.625 327.633 85.625C333.88 85.625 338.944 90.689 338.944 96.9358ZM356.094 108.247C362.341 108.247 367.405 103.183 367.405 96.9358C367.405 90.689 362.341 85.625 356.094 85.625C349.847 85.625 344.783 90.689 344.783 96.9358C344.783 103.183 349.847 108.247 356.094 108.247ZM376.891 71.3928C376.891 77.6396 371.827 82.7037 365.58 82.7037C359.334 82.7037 354.27 77.6396 354.27 71.3928C354.27 65.1461 359.334 60.082 365.58 60.082C371.827 60.082 376.891 65.1461 376.891 71.3928Z" fill="#505059"/>
</g>
<path d="M40.0185 190.082C40.3726 192.209 42.0419 194.244 44.2714 194.887L43.6239 196.135C42.0031 195.676 40.6303 194.423 39.7637 192.833C39.4589 194.761 38.5108 196.487 37.0528 197.482L36.0486 196.493C37.9857 195.188 38.9649 192.602 38.5851 190.321L38.4337 189.411L35.382 189.919L35.187 188.748L38.2233 188.243L37.8769 186.162L39.3566 185.916L39.703 187.996L42.7085 187.496L42.9035 188.667L39.8671 189.173L40.0185 190.082ZM45.306 184.64L46.2323 190.204L48.4517 189.835L48.657 191.068L46.4375 191.437L47.605 198.45L46.1408 198.694L43.8418 184.884L45.306 184.64ZM61.8453 188.555L62.0429 189.742L49.4814 191.833L49.2838 190.646L54.3238 189.807L53.8697 187.079L55.3031 186.841L55.7572 189.569L61.8453 188.555ZM60.6837 191.473L61.4612 196.143L59.9815 196.39L59.3991 192.891L51.2457 194.248L51.0507 193.077L60.6837 191.473ZM59.3316 183.065L59.5009 184.083C59.66 185.133 59.8627 186.351 59.8033 187.992L58.3006 188.1C58.3895 186.541 58.2253 185.459 58.0598 184.465L49.9834 185.81L49.791 184.654L59.3316 183.065ZM67.2993 185.541C67.6534 187.668 69.3227 189.702 71.5522 190.345L70.9047 191.593C69.2839 191.134 67.9112 189.882 67.0445 188.292C66.7397 190.219 65.7916 191.945 64.3336 192.941L63.3294 191.951C65.2665 190.647 66.2457 188.06 65.8659 185.779L65.7145 184.87L62.6628 185.378L62.4678 184.207L65.5041 183.701L65.1577 181.62L66.6374 181.374L66.9838 183.455L69.9893 182.954L70.1843 184.126L67.1479 184.631L67.2993 185.541ZM72.5868 180.098L73.5131 185.663L75.7325 185.293L75.9378 186.526L73.7183 186.896L74.8858 193.908L73.4216 194.152L71.1226 180.342L72.5868 180.098ZM89.1261 184.014L89.3237 185.201L76.7622 187.292L76.5646 186.105L81.6047 185.266L81.1505 182.538L82.5839 182.299L83.0381 185.027L89.1261 184.014ZM87.9645 186.932L88.742 191.602L87.2623 191.848L86.6799 188.349L78.5265 189.707L78.3315 188.535L87.9645 186.932ZM86.6124 178.524L86.7817 179.541C86.9408 180.592 87.1435 181.809 87.0841 183.451L85.5814 183.558C85.6703 181.999 85.5061 180.918 85.3406 179.924L77.2642 181.268L77.0718 180.112L86.6124 178.524ZM104.137 174.846L104.624 177.775L106.32 177.492L106.52 178.695L104.825 178.977L105.356 182.167L103.907 182.408L102.688 175.087L104.137 174.846ZM96.5356 177.521C96.7113 178.577 97.2081 180.039 98.3562 180.941C99.1309 179.743 99.1402 178.228 98.958 177.134L98.822 176.317L99.1457 176.263L99.1405 176.232L100.173 176.06L100.312 176.893C100.563 178.403 101.426 180.065 103.152 180.633L102.54 181.812C101.4 181.432 100.612 180.597 100.095 179.59C99.9437 180.724 99.5351 181.837 98.6204 182.623L98.5999 182.595C97.489 182.154 96.7378 181.21 96.2474 180.167C96.0725 181.305 95.6022 182.381 94.6799 183.121L93.7194 182.204C95.1298 181.066 95.3794 179.139 95.1484 177.752L95.0099 176.92L96.397 176.689L96.5356 177.521ZM105.988 182.822L106.177 183.963L96.3286 185.603L96.1387 184.462L100.346 183.762L100.131 182.467L101.595 182.223L101.811 183.518L105.988 182.822ZM101.356 185.352C103.948 184.936 105.563 185.412 105.774 186.676C105.994 188.001 104.615 188.943 102.023 189.359C99.4205 189.808 97.7946 189.366 97.5894 188.038C97.3636 186.777 98.7534 185.801 101.356 185.352ZM101.533 186.415C99.791 186.705 98.9227 187.198 99.0382 187.797C99.128 188.431 100.109 188.616 101.848 188.311C103.562 188.042 104.445 187.546 104.34 186.914C104.24 186.313 103.244 186.13 101.533 186.415ZM118.039 172.532L120.344 186.373L118.879 186.616L116.575 172.776L118.039 172.532ZM110.829 174.793C112.878 174.452 114.702 176.081 115.195 179.04C115.69 182.015 114.492 184.147 112.442 184.488C110.362 184.835 108.554 183.203 108.058 180.228C107.566 177.269 108.748 175.14 110.829 174.793ZM111.047 176.104C109.767 176.317 109.115 177.819 109.476 179.992C109.841 182.181 110.945 183.391 112.224 183.178C113.488 182.968 114.141 181.465 113.777 179.276C113.415 177.103 112.31 175.893 111.047 176.104ZM132.09 174.343L132.285 175.514L122.775 177.097L121.99 172.381L123.439 172.14L124.029 175.685L132.09 174.343ZM134.024 177.015L134.219 178.186L121.58 180.29L121.385 179.119L134.024 177.015ZM133.555 182.573L133.755 183.776L124.045 185.392L123.37 181.338L124.835 181.095L125.309 183.946L133.555 182.573ZM141.693 169.418C142.84 169.219 143.89 169.488 144.657 170.096L148.11 169.522L147.786 167.58L149.25 167.336L150.608 175.489L149.144 175.733L148.833 173.868L145.365 174.445C144.844 175.261 143.935 175.848 142.794 176.03C140.715 176.392 138.943 175.261 138.623 173.335C138.299 171.392 139.61 169.749 141.693 169.418ZM141.903 170.682C140.606 170.882 139.82 171.868 140.025 173.101C140.225 174.303 141.294 175.012 142.586 174.781C143.852 174.586 144.633 173.569 144.433 172.367C144.228 171.134 143.165 170.456 141.903 170.682ZM146.035 176.567C148.902 176.09 150.867 176.761 151.149 178.456C151.429 180.136 149.79 181.423 146.92 181.885C144.041 182.38 142.073 181.694 141.809 180.011C141.511 178.318 143.153 177.047 146.035 176.567ZM146.223 177.693C144.203 178.029 143.063 178.789 143.242 179.773C143.386 180.731 144.709 181.065 146.728 180.729C148.763 180.39 149.875 179.651 149.716 178.695C149.552 177.709 148.257 177.354 146.223 177.693ZM145.515 171.158C145.666 171.449 145.777 171.779 145.836 172.134C145.892 172.473 145.893 172.813 145.859 173.128L148.633 172.666L148.305 170.693L145.515 171.158ZM156.507 168.393C156.81 170.212 158.353 171.681 160.531 172.016L159.938 173.303C158.339 173.022 157.026 172.132 156.206 170.867C155.855 172.517 154.885 173.922 153.374 174.791L152.393 173.751C154.423 172.621 155.366 170.579 155.038 168.511L154.812 167.155L156.261 166.913L156.507 168.393ZM162.228 165.175L162.805 168.643L164.809 168.31L165.014 169.543L163.011 169.876L163.616 173.514L162.152 173.758L160.764 165.419L162.228 165.175ZM159.216 174.579C162.052 174.107 163.95 174.757 164.219 176.376C164.491 178.009 162.906 179.239 160.068 179.696C157.203 180.189 155.274 179.544 155.002 177.91C154.733 176.292 156.349 175.056 159.216 174.579ZM159.408 175.735C157.405 176.069 156.305 176.79 156.467 177.666C156.603 178.578 157.872 178.874 159.878 178.556C161.864 178.209 162.937 177.524 162.786 176.614C162.64 175.736 161.397 175.404 159.408 175.735ZM178.567 168.269L178.762 169.44L166.155 171.539L165.96 170.368L178.567 168.269ZM176.71 166.344L176.905 167.516L167.442 169.091L166.734 164.837L176.059 163.285L176.256 164.472L168.396 165.78L168.711 167.676L176.71 166.344ZM177.342 170.801L177.898 174.146L169.853 175.485L170.058 176.718L178.489 175.315L178.681 176.471L168.817 178.113L168.24 174.645L176.27 173.308L176.08 172.168L168.034 173.507L167.847 172.382L177.342 170.801ZM192.451 167.557L192.646 168.729L180.054 170.825L179.859 169.654L192.451 167.557ZM191.885 172.91L192.083 174.097L182.496 175.693L181.829 171.686L183.309 171.439L183.778 174.26L191.885 172.91ZM185.024 161.856C188.011 161.343 190.128 162.067 190.415 163.794C190.705 165.535 188.938 166.907 185.95 167.42C182.942 167.905 180.841 167.177 180.551 165.436C180.263 163.71 182.016 162.341 185.024 161.856ZM185.219 163.027C183.107 163.379 181.882 164.2 182.061 165.184C182.215 166.204 183.638 166.569 185.75 166.218C187.861 165.866 189.074 165.062 188.905 164.045C188.74 163.059 187.33 162.676 185.219 163.027Z" fill="#80808A"/>
<defs>
<filter id="filter0_i_1157_2530" x="301" y="36" width="81" height="81" filterUnits="userSpaceOnUse" color-interpolation-filters="sRGB">
<feFlood flood-opacity="0" result="BackgroundImageFix"/>
<feBlend mode="normal" in="SourceGraphic" in2="BackgroundImageFix" result="shape"/>
<feColorMatrix in="SourceAlpha" type="matrix" values="0 0 0 0 0 0 0 0 0 0 0 0 0 0 0 0 0 0 127 0" result="hardAlpha"/>
<feOffset dx="1" dy="1"/>
<feComposite in2="hardAlpha" operator="arithmetic" k2="-1" k3="1"/>
<feColorMatrix type="matrix" values="0 0 0 0 0.945098 0 0 0 0 0.913725 0 0 0 0 0.803922 0 0 0 0.16 0"/>
<feBlend mode="normal" in2="shape" result="effect1_innerShadow_1157_2530"/>
</filter>
</defs>
</svg>
