<svg width="81" height="81" viewBox="0 0 81 81" fill="none" xmlns="http://www.w3.org/2000/svg">
<g filter="url(#filter0_i_1157_2512)">
<path fill-rule="evenodd" clip-rule="evenodd" d="M40.5 81C62.8675 81 81 62.8675 81 40.5C81 18.1325 62.8675 0 40.5 0C18.1325 0 0 18.1325 0 40.5C0 62.8675 18.1325 81 40.5 81ZM40.4983 28.4615C46.7451 28.4615 51.8091 23.3974 51.8091 17.1507C51.8091 10.9039 46.7451 5.83984 40.4983 5.83984C34.2515 5.83984 29.1875 10.9039 29.1875 17.1507C29.1875 23.3974 34.2515 28.4615 40.4983 28.4615ZM17.8772 46.7037C24.124 46.7037 29.188 41.6396 29.188 35.3928C29.188 29.1461 24.124 24.082 17.8772 24.082C11.6304 24.082 6.56641 29.1461 6.56641 35.3928C6.56641 41.6396 11.6304 46.7037 17.8772 46.7037ZM37.9439 60.9358C37.9439 67.1826 32.8799 72.2466 26.6331 72.2466C20.3863 72.2466 15.3223 67.1826 15.3223 60.9358C15.3223 54.689 20.3863 49.625 26.6331 49.625C32.8799 49.625 37.9439 54.689 37.9439 60.9358ZM55.094 72.2466C61.3408 72.2466 66.4048 67.1826 66.4048 60.9358C66.4048 54.689 61.3408 49.625 55.094 49.625C48.8472 49.625 43.7832 54.689 43.7832 60.9358C43.7832 67.1826 48.8472 72.2466 55.094 72.2466ZM75.8912 35.3928C75.8912 41.6396 70.8271 46.7037 64.5803 46.7037C58.3336 46.7037 53.2695 41.6396 53.2695 35.3928C53.2695 29.1461 58.3336 24.082 64.5803 24.082C70.8271 24.082 75.8912 29.1461 75.8912 35.3928Z" fill="#505059"/>
</g>
<defs>
<filter id="filter0_i_1157_2512" x="0" y="0" width="81" height="81" filterUnits="userSpaceOnUse" color-interpolation-filters="sRGB">
<feFlood flood-opacity="0" result="BackgroundImageFix"/>
<feBlend mode="normal" in="SourceGraphic" in2="BackgroundImageFix" result="shape"/>
<feColorMatrix in="SourceAlpha" type="matrix" values="0 0 0 0 0 0 0 0 0 0 0 0 0 0 0 0 0 0 127 0" result="hardAlpha"/>
<feOffset dx="1" dy="1"/>
<feComposite in2="hardAlpha" operator="arithmetic" k2="-1" k3="1"/>
<feColorMatrix type="matrix" values="0 0 0 0 0.945098 0 0 0 0 0.913725 0 0 0 0 0.803922 0 0 0 0.16 0"/>
<feBlend mode="normal" in2="shape" result="effect1_innerShadow_1157_2512"/>
</filter>
</defs>
</svg>
