<svg width="20" height="14" viewBox="0 0 20 14" fill="none" xmlns="http://www.w3.org/2000/svg">
<path fill-rule="evenodd" clip-rule="evenodd" d="M3 5.24537e-07C2.20435 3.85421e-07 1.44129 0.316071 0.87868 0.87868C0.31607 1.44129 -3.85421e-07 2.20435 -5.24537e-07 3L-1.9233e-06 11C-2.06242e-06 11.7956 0.316068 12.5587 0.878677 13.1213C1.44129 13.6839 2.20435 14 3 14L13 14C13.7956 14 14.5587 13.6839 15.1213 13.1213C15.6839 12.5587 16 11.7957 16 11L16 9.414L18.293 11.707C18.4328 11.8468 18.611 11.942 18.805 11.9806C18.9989 12.0192 19.2 11.9994 19.3827 11.9237C19.5654 11.848 19.7215 11.7199 19.8314 11.5555C19.9413 11.3911 20 11.1978 20 11L20 3C20 2.80225 19.9413 2.60895 19.8314 2.44454C19.7215 2.28014 19.5654 2.152 19.3827 2.07633C19.2 2.00066 18.9989 1.98085 18.805 2.01942C18.611 2.05799 18.4329 2.15319 18.293 2.293L16 4.586L16 3C16 2.20435 15.6839 1.44129 15.1213 0.878682C14.5587 0.316073 13.7956 2.41211e-06 13 2.27299e-06L3 5.24537e-07Z" fill="#28282F"/>
</svg>
