<svg width="24" height="24" viewBox="0 0 24 24" fill="none" xmlns="http://www.w3.org/2000/svg">
<path d="M3 6C3 5.46957 3.21071 4.96086 3.58579 4.58579C3.96086 4.21071 4.46957 4 5 4H8.93C9.25918 3.99995 9.58329 4.08116 9.87357 4.23641C10.1638 4.39166 10.4113 4.61617 10.594 4.89L11.406 6.11C11.5887 6.38383 11.8362 6.60834 12.1264 6.76359C12.4167 6.91884 12.7408 7.00005 13.07 7H19C19.5304 7 20.0391 7.21071 20.4142 7.58579C20.7893 7.96086 21 8.46957 21 9V18C21 18.5304 20.7893 19.0391 20.4142 19.4142C20.0391 19.7893 19.5304 20 19 20H5C4.46957 20 3.96086 19.7893 3.58579 19.4142C3.21071 19.0391 3 18.5304 3 18V6Z" fill="white"/>
</svg>
