<svg width="24" height="24" viewBox="0 0 24 24" fill="none" xmlns="http://www.w3.org/2000/svg">
<path d="M12.088 5.02584C13.562 4.30121 15.1917 3.9508 16.8333 4.00556C18.4748 4.06033 20.0776 4.51858 21.5 5.33984C21.6347 5.4176 21.7494 5.52569 21.8349 5.65554C21.9205 5.78539 21.9746 5.93341 21.993 6.08784L22 6.20584V19.2058C22 19.3814 21.9538 19.5538 21.866 19.7058C21.7782 19.8578 21.652 19.9841 21.5 20.0718C21.348 20.1596 21.1755 20.2058 21 20.2058C20.8245 20.2058 20.652 20.1596 20.5 20.0718C19.2838 19.3697 17.9043 19 16.5 19C15.0957 19 13.7162 19.3697 12.5 20.0718C12.348 20.1596 12.1755 20.2058 12 20.2058C11.8245 20.2058 11.652 20.1596 11.5 20.0718C10.3287 19.3954 9.00494 19.0271 7.65257 19.0012C6.30021 18.9753 4.96337 19.2928 3.767 19.9238L3.44 20.1038L3.337 20.1478L3.288 20.1638L3.178 20.1898L3.117 20.1998L3 20.2058H2.958L2.848 20.1938L2.771 20.1798L2.663 20.1478L2.537 20.0918L2.442 20.0358L2.353 19.9688L2.293 19.9128L2.22 19.8308L2.156 19.7418L2.134 19.7058L2.102 19.6458L2.058 19.5428L2.042 19.4938L2.016 19.3838L2.006 19.3228L2.002 19.2738L2 19.2058V6.20584C2 6.0303 2.04621 5.85786 2.13398 5.70585C2.22175 5.55384 2.34798 5.4276 2.5 5.33984C3.9224 4.51858 5.52518 4.06033 7.16672 4.00556C8.80827 3.9508 10.438 4.30121 11.912 5.02584L12 5.06984L12.088 5.02584Z" fill="white"/>
</svg>
