<svg width="24" height="24" viewBox="0 0 24 24" fill="none" xmlns="http://www.w3.org/2000/svg">
<path fill-rule="evenodd" clip-rule="evenodd" d="M2 5.76563C2 4.38491 3.11929 3.26562 4.5 3.26562H19.5C20.8807 3.26562 22 4.38491 22 5.76562V15.7656C22 17.1463 20.8807 18.2656 19.5 18.2656H13.8998C13.8917 18.2968 13.8771 18.3274 13.8552 18.3558L12.1981 20.5085C12.098 20.6385 11.902 20.6385 11.8019 20.5085L10.1448 18.3558C10.1229 18.3274 10.1083 18.2968 10.1002 18.2656H4.5C3.11929 18.2656 2 17.1463 2 15.7656V5.76563ZM9.1875 7.0158C9.1875 6.67063 9.46732 6.3908 9.8125 6.3908H10.4375C10.7827 6.3908 11.0625 6.67063 11.0625 7.0158V7.95348H12.9375V7.01598C12.9375 6.67081 13.2173 6.39098 13.5625 6.39098H14.1875C14.5327 6.39098 14.8125 6.67081 14.8125 7.01598V7.95348H15.75C16.0952 7.95348 16.375 8.23331 16.375 8.57848V9.20348C16.375 9.54866 16.0952 9.82848 15.75 9.82848H14.8125V11.7035H15.75C16.0952 11.7035 16.375 11.9833 16.375 12.3285V12.9535C16.375 13.2987 16.0952 13.5785 15.75 13.5785H14.8125V14.516C14.8125 14.8612 14.5327 15.141 14.1875 15.141H13.5625C13.2173 15.141 12.9375 14.8612 12.9375 14.516V13.5785L11.0625 13.5785V14.5158C11.0625 14.861 10.7827 15.1408 10.4375 15.1408H9.8125C9.46732 15.1408 9.1875 14.861 9.1875 14.5158V13.5785H8.25C7.90482 13.5785 7.625 13.2987 7.625 12.9535V12.3285C7.625 11.9833 7.90482 11.7035 8.25 11.7035H9.1875V9.82848H8.25C7.90482 9.82848 7.625 9.54866 7.625 9.20348V8.57848C7.625 8.23331 7.90482 7.95348 8.25 7.95348H9.1875V7.0158ZM12.9375 9.82848V11.7035L11.0625 11.7035V9.82848H12.9375Z" fill="#BABAC0"/>
</svg>
