<svg width="55" height="18" viewBox="0 0 55 18" fill="none" xmlns="http://www.w3.org/2000/svg">
<path d="M27.5793 0.691406C22.4978 0.691406 19.8086 4.41182 19.8086 9.00022C19.8086 13.5886 22.5501 17.309 27.5793 17.309C32.6086 17.309 35.3501 13.5886 35.3501 9.00022C35.3501 4.41182 32.6608 0.691406 27.5793 0.691406ZM27.5793 16.1119C24.3842 16.1119 22.6414 12.9271 22.6414 9.00344C22.6414 5.07975 24.3483 1.89175 27.5793 1.89175C30.8103 1.89175 32.5172 5.07652 32.5172 9.00022C32.5172 12.9239 30.8071 16.1087 27.5793 16.1087V16.1119Z" fill="#383842"/>
<path d="M44.507 5.17378C42.0462 4.28643 40.1827 6.37735 40.1142 8.75221C40.1142 8.78125 40.0521 8.75867 40.026 8.65541C39.9085 8.23271 39.7486 7.76806 39.5104 7.326C38.9197 6.22246 37.7252 4.73817 36.3479 4.3671C35.9073 4.21544 35.4341 4.52521 35.5614 4.9705C35.6756 5.31898 36.0999 5.40288 36.3577 5.59325C39.1612 7.33568 39.1677 14.4087 35.8779 15.9446C35.4145 16.0898 35.1175 16.6254 35.6005 16.9545C36.126 17.174 36.7461 16.8061 37.2258 16.6351C39.3929 15.6864 40.1598 13.2567 40.6168 10.9238C40.6625 10.6947 40.7016 10.5818 40.7408 10.0719C40.8126 9.15233 40.6657 7.95844 41.4425 7.23565C41.6546 7.03237 42.105 6.68388 42.1213 7.20016C42.0136 8.9555 44.011 9.51049 45.1891 8.32951C46.0181 7.4099 45.7276 5.6352 44.5527 5.18991L44.5103 5.17378H44.507Z" fill="#383842"/>
<path d="M10.4813 5.17378C12.942 4.28643 14.8056 6.37735 14.8741 8.75221C14.8741 8.78125 14.9361 8.75867 14.9622 8.65541C15.0797 8.23271 15.2397 7.76806 15.4779 7.326C16.0686 6.22246 17.2631 4.73817 18.6404 4.3671C19.081 4.21544 19.5542 4.52521 19.4269 4.9705C19.3127 5.31898 18.8884 5.40288 18.6306 5.59325C15.8271 7.33568 15.8206 14.4087 19.1103 15.9446C19.5738 16.0898 19.8708 16.6254 19.3877 16.9545C18.8623 17.174 18.2422 16.8061 17.7624 16.6351C15.5954 15.6864 14.8284 13.2567 14.3715 10.9238C14.3258 10.6947 14.2867 10.5818 14.2475 10.0719C14.1757 9.15233 14.3226 7.95844 13.5458 7.23565C13.3337 7.03237 12.8833 6.68388 12.867 7.20016C12.9747 8.9555 10.9773 9.51049 9.79915 8.32951C8.97019 7.4099 9.26065 5.6352 10.4356 5.18991L10.478 5.17378H10.4813Z" fill="#383842"/>
<path d="M52.6658 4.61156C52.0457 4.27276 51.6117 5.07944 52.0914 5.5215C53.658 7.55434 52.519 11.9362 50.0614 13.7271C49.9896 13.7787 49.7416 13.8981 49.8101 13.7271C50.0418 13.1656 50.2116 12.5461 50.3062 11.9007C50.7925 8.66755 49.5262 5.36984 46.3507 4.52122C45.7795 4.30825 45.2965 4.97941 45.7697 5.39243C49.4381 7.01225 49.0171 14.9629 45.414 16.2052C45.1496 16.3278 45.0256 16.6731 45.1823 16.928C45.3128 17.1732 45.6327 17.2055 45.8807 17.2055C48.6352 17.3829 52.6234 14.3434 53.8342 11.6071C54.9341 9.12575 54.7415 6.32818 52.705 4.63738L52.6691 4.61156H52.6658Z" fill="#383842"/>
<path d="M2.32246 4.61156C2.94255 4.27276 3.37662 5.07944 2.89686 5.5215C1.33031 7.55434 2.46933 11.9362 4.92685 13.7271C4.99865 13.7787 5.24669 13.8981 5.17815 13.7271C4.94643 13.1656 4.77672 12.5461 4.68208 11.9007C4.19579 8.66755 5.46209 5.36984 8.63761 4.52122C9.20875 4.30825 9.69177 4.97941 9.21854 5.39243C5.55021 7.01225 5.97122 14.9629 9.57428 16.2052C9.83864 16.3278 9.96266 16.6731 9.806 16.928C9.67545 17.1732 9.35562 17.2055 9.10758 17.2055C6.35306 17.3829 2.36489 14.3434 1.15407 11.6071C0.0542259 9.12575 0.246781 6.32818 2.2833 4.63738L2.3192 4.61156H2.32246Z" fill="#383842"/>
</svg>
