<svg width="42" height="20" viewBox="0 0 42 20" fill="none" xmlns="http://www.w3.org/2000/svg">
<g clip-path="url(#clip0_1002_2281)">
<path d="M9.40841 0C3.256 0 0 4.47767 0 10C0 15.5223 3.31922 20 9.40841 20C15.4976 20 18.8168 15.5223 18.8168 10C18.8168 4.47767 15.5608 0 9.40841 0ZM9.40841 18.5592C5.53994 18.5592 3.42986 14.7262 3.42986 10.0039C3.42986 5.28155 5.49647 1.44466 9.40841 1.44466C13.3203 1.44466 15.387 5.27767 15.387 10C15.387 14.7223 13.3164 18.5553 9.40841 18.5553V18.5592Z" fill="white"/>
<path d="M29.9049 5.39473C26.9255 4.32677 24.6692 6.84328 24.5862 9.70153C24.5862 9.73648 24.5111 9.7093 24.4795 9.58502C24.3373 9.07629 24.1436 8.51706 23.8552 7.98502C23.14 6.65687 21.6937 4.87046 20.0262 4.42386C19.4928 4.24133 18.9198 4.61415 19.0739 5.15007C19.2122 5.56949 19.7259 5.67046 20.0381 5.89959C23.4324 7.99667 23.4403 16.5093 19.4572 18.3578C18.8961 18.5326 18.5365 19.1773 19.1213 19.5734C19.7575 19.8375 20.5083 19.3947 21.0892 19.1889C23.7129 18.0472 24.6415 15.1229 25.1947 12.3151C25.25 12.0394 25.2975 11.9035 25.3449 11.2899C25.4318 10.1831 25.254 8.74619 26.1944 7.87629C26.4513 7.63163 26.9966 7.21221 27.0163 7.83357C26.886 9.94619 29.3042 10.6141 30.7307 9.19279C31.7344 8.08599 31.3827 5.95007 29.9602 5.41415L29.9088 5.39473H29.9049Z" fill="white"/>
<path d="M39.7834 4.71832C39.0326 4.31056 38.5071 5.28143 39.0879 5.81347C40.9846 8.26007 39.6056 13.5339 36.6301 15.6892C36.5432 15.7513 36.2429 15.895 36.3259 15.6892C36.6064 15.0135 36.8119 14.2678 36.9265 13.4911C37.5152 9.59988 35.9821 5.63095 32.1373 4.60959C31.4458 4.35328 30.861 5.16104 31.434 5.65813C35.8754 7.60764 35.3657 17.1766 31.0033 18.6717C30.6832 18.8193 30.533 19.2348 30.7227 19.5416C30.8808 19.8368 31.268 19.8756 31.5683 19.8756C34.9033 20.0892 39.732 16.4309 41.198 13.1377C42.5296 10.1513 42.2965 6.78434 39.8308 4.74939L39.7873 4.71832H39.7834Z" fill="white"/>
</g>
<defs>
<clipPath id="clip0_1002_2281">
<rect width="42" height="20" fill="white"/>
</clipPath>
</defs>
</svg>
