<svg width="120" height="61" viewBox="0 0 120 61" fill="none" xmlns="http://www.w3.org/2000/svg">
<g clip-path="url(#clip0_2200_8465)">
<path d="M26.8812 1.92871C9.30285 1.92871 0 14.7221 0 30.5001C0 46.2782 9.48349 59.0716 26.8812 59.0716C44.2789 59.0716 53.7623 46.2782 53.7623 30.5001C53.7623 14.7221 44.4595 1.92871 26.8812 1.92871ZM26.8812 54.9551C15.8284 54.9551 9.79961 44.0036 9.79961 30.5112C9.79961 17.0189 15.7042 6.05631 26.8812 6.05631C38.0581 6.05631 43.9627 17.0078 43.9627 30.5001C43.9627 43.9925 38.0469 54.944 26.8812 54.944V54.9551Z" fill="#C5D1FF"/>
<path d="M85.438 17.341C76.9254 14.2897 70.4789 21.4797 70.2418 29.6462C70.2418 29.746 70.0273 29.6684 69.937 29.3133C69.5306 27.8598 68.9774 26.262 68.1532 24.7419C66.1097 20.9471 61.9777 15.8431 57.2133 14.5671C55.6892 14.0456 54.0522 15.1108 54.4925 16.642C54.8876 17.8404 56.3553 18.1288 57.2472 18.7835C66.9452 24.7752 66.9678 49.0969 55.5876 54.3785C53.9844 54.8778 52.957 56.7197 54.6279 57.8514C56.4456 58.606 58.5907 57.341 60.2503 56.753C67.7468 53.4908 70.3999 45.1358 71.9805 37.1136C72.1385 36.3258 72.274 35.9374 72.4095 34.1843C72.6579 31.022 72.1498 26.9166 74.8368 24.4312C75.5707 23.7322 77.1287 22.5338 77.1851 24.3091C76.8125 30.3452 83.7219 32.2537 87.7976 28.1926C90.6652 25.0304 89.6604 18.9277 85.5961 17.3965L85.4493 17.341H85.438Z" fill="#C5D1FF"/>
<path d="M113.665 15.4103C111.52 14.2452 110.019 17.0191 111.678 18.5393C117.098 25.5295 113.157 40.5975 104.656 46.7556C104.408 46.9332 103.55 47.3437 103.787 46.7556C104.588 44.825 105.175 42.6946 105.503 40.4755C107.185 29.3576 102.805 18.0178 91.8195 15.0996C89.8438 14.3673 88.1729 16.6752 89.8099 18.0954C102.5 23.6655 101.043 51.0053 88.5793 55.2771C87.6649 55.6988 87.2358 56.886 87.7778 57.7626C88.2293 58.6058 89.3358 58.7168 90.1938 58.7168C99.7224 59.327 113.519 48.8749 117.707 39.4657C121.512 30.9332 120.846 21.3132 113.801 15.499L113.677 15.4103H113.665Z" fill="#C5D1FF"/>
</g>
<defs>
<clipPath id="clip0_2200_8465">
<rect width="120" height="57.1429" fill="white" transform="translate(0 1.92871)"/>
</clipPath>
</defs>
</svg>
