<svg width="150" height="72" viewBox="0 0 150 72" fill="none" xmlns="http://www.w3.org/2000/svg">
<g clip-path="url(#clip0_2556_7902)">
<path d="M33.5947 0C11.6262 0 0 15.9884 0 35.7071C0 55.4257 11.852 71.4141 33.5947 71.4141C55.3374 71.4141 67.1894 55.4257 67.1894 35.7071C67.1894 15.9884 55.5631 0 33.5947 0ZM33.5947 66.2695C19.7815 66.2695 12.247 52.583 12.247 35.7209C12.247 18.8589 19.6263 5.15846 33.5947 5.15846C47.5631 5.15846 54.9423 18.845 54.9423 35.7071C54.9423 52.5691 47.549 66.2557 33.5947 66.2557V66.2695Z" fill="#030303"/>
<path d="M106.784 19.2611C96.1451 15.4478 88.0886 24.4335 87.7923 34.6395C87.7923 34.7643 87.5242 34.6672 87.4113 34.2234C86.9034 32.4069 86.212 30.4101 85.182 28.5103C82.6282 23.7679 77.4641 17.3891 71.5099 15.7944C69.6052 15.1427 67.5593 16.4739 68.1095 18.3875C68.6034 19.8852 70.4376 20.2457 71.5523 21.0638C83.6723 28.5519 83.7005 58.948 69.4782 65.5486C67.4746 66.1726 66.1907 68.4745 68.2789 69.8889C70.5505 70.8319 73.2313 69.251 75.3054 68.5161C84.6741 64.4393 87.9898 53.9975 89.9651 43.9718C90.1627 42.9873 90.332 42.5019 90.5013 40.311C90.8117 36.3589 90.1768 31.2282 93.5348 28.122C94.452 27.2484 96.3991 25.7508 96.4696 27.9695C96.004 35.5131 104.639 37.8982 109.733 32.8229C113.316 28.8709 112.061 21.2441 106.981 19.3305L106.798 19.2611H106.784Z" fill="#030303"/>
<path d="M142.058 16.8485C139.377 15.3925 137.5 18.8592 139.574 20.759C146.347 29.4951 141.423 48.3262 130.798 56.0223C130.488 56.2442 129.415 56.7573 129.712 56.0223C130.714 53.6095 131.447 50.9471 131.856 48.1737C133.959 34.2791 128.484 20.1072 114.756 16.4603C112.287 15.5451 110.198 18.4294 112.244 20.2043C128.103 27.1654 126.283 61.3333 110.706 66.672C109.563 67.199 109.027 68.6827 109.705 69.7782C110.269 70.8321 111.652 70.9707 112.724 70.9707C124.632 71.7334 141.874 58.6709 147.109 46.9118C151.864 36.2482 151.031 24.2257 142.227 16.9595L142.072 16.8485H142.058Z" fill="#030303"/>
</g>
<defs>
<clipPath id="clip0_2556_7902">
<rect width="149.97" height="71.4141" fill="white"/>
</clipPath>
</defs>
</svg>
