<svg width="24" height="24" viewBox="0 0 24 24" fill="none" xmlns="http://www.w3.org/2000/svg">
<path d="M4.93326 12.01C5.19551 11.9729 5.46178 12.0413 5.67364 12.2003C5.88549 12.3593 6.02561 12.5958 6.06326 12.858C6.18842 13.7269 6.50274 14.5578 6.98402 15.292C7.46531 16.0262 8.10185 16.6458 8.84873 17.1072C9.5956 17.5685 10.4346 17.8604 11.3066 17.9621C12.1786 18.0639 13.0622 17.973 13.8953 17.696L14.1883 17.589L15.6973 19.098C14.9639 19.4794 14.1759 19.7449 13.3613 19.885L13.0033 19.938V21C13.003 21.2549 12.9054 21.5 12.7304 21.6854C12.5554 21.8707 12.3163 21.9822 12.0619 21.9972C11.8074 22.0121 11.5569 21.9293 11.3614 21.7657C11.166 21.6021 11.0404 21.3701 11.0103 21.117L11.0033 21V19.938C9.26523 19.7184 7.64723 18.9347 6.39742 17.7071C5.14762 16.4795 4.33502 14.8758 4.08426 13.142C4.06559 13.012 4.07272 12.8796 4.10524 12.7523C4.13775 12.6251 4.19502 12.5055 4.27377 12.4003C4.35252 12.2952 4.4512 12.2066 4.56418 12.1397C4.67717 12.0727 4.80324 12.0286 4.93326 12.01ZM12.0033 2C13.2917 2.00007 14.5304 2.49754 15.461 3.38866C16.3916 4.27978 16.9423 5.49575 16.9983 6.783L17.0033 7V12C17.0036 12.8925 16.765 13.7688 16.3123 14.538L16.1753 14.758L16.8943 15.477C17.4363 14.717 17.8043 13.825 17.9423 12.858C17.9799 12.5954 18.1203 12.3586 18.3326 12.1996C18.5449 12.0405 18.8117 11.9723 19.0743 12.01C19.3368 12.0477 19.5737 12.1881 19.7327 12.4004C19.8917 12.6127 19.9599 12.8794 19.9223 13.142C19.741 14.4095 19.2566 15.6146 18.5103 16.655L18.3233 16.905L20.4883 19.071C20.6676 19.251 20.7717 19.4924 20.7795 19.7464C20.7872 20.0003 20.698 20.2477 20.53 20.4383C20.362 20.6288 20.1277 20.7483 19.8748 20.7724C19.6219 20.7965 19.3692 20.7234 19.1683 20.568L19.0743 20.485L3.51826 4.93C3.33891 4.75004 3.23478 4.50857 3.22703 4.25462C3.21927 4.00067 3.30847 3.75329 3.47651 3.56272C3.64454 3.37216 3.87881 3.25269 4.13173 3.2286C4.38465 3.20451 4.63727 3.27759 4.83826 3.433L4.93226 3.516L7.16226 5.746C7.44012 4.6735 8.06633 3.72366 8.94254 3.04564C9.81876 2.36762 10.8953 1.99982 12.0033 2ZM7.00326 10.404L13.4013 16.802C12.656 17.019 11.8705 17.0596 11.1069 16.9204C10.3433 16.7813 9.62263 16.4663 9.00186 16.0004C8.38108 15.5344 7.87731 14.9304 7.53041 14.2361C7.18352 13.5417 7.00304 12.7762 7.00326 12V10.404Z" fill="white"/>
</svg>
