<svg width="24" height="24" viewBox="0 0 24 24" fill="none" xmlns="http://www.w3.org/2000/svg">
<path d="M19.0694 12.01C19.1996 12.0284 19.3249 12.0723 19.4381 12.1392C19.5514 12.206 19.6503 12.2946 19.7292 12.3997C19.8082 12.5049 19.8656 12.6245 19.8983 12.7519C19.9309 12.8793 19.9381 13.0118 19.9194 13.142C19.6688 14.876 18.8561 16.4799 17.6061 17.7075C16.356 18.9352 14.7377 19.7187 12.9994 19.938V21C12.9994 21.2652 12.8941 21.5196 12.7066 21.7071C12.519 21.8946 12.2647 22 11.9994 22C11.7342 22 11.4799 21.8946 11.2923 21.7071C11.1048 21.5196 10.9994 21.2652 10.9994 21V19.938C9.26142 19.7184 7.64342 18.9347 6.39362 17.7071C5.14381 16.4795 4.33121 14.8758 4.08045 13.142C4.04279 12.8794 4.11097 12.6127 4.27 12.4004C4.42903 12.1881 4.66588 12.0477 4.92845 12.01C5.19101 11.9723 5.45778 12.0405 5.67008 12.1996C5.88237 12.3586 6.02279 12.5954 6.06045 12.858C6.26727 14.2856 6.98139 15.5909 8.07206 16.535C9.16273 17.479 10.557 17.9986 11.9994 17.9986C13.4419 17.9986 14.8362 17.479 15.9268 16.535C17.0175 15.5909 17.7316 14.2856 17.9384 12.858C17.9571 12.728 18.0011 12.6029 18.0681 12.4899C18.1351 12.3769 18.2237 12.2783 18.3288 12.1995C18.4339 12.1208 18.5535 12.0635 18.6808 12.031C18.808 11.9985 18.9394 11.9913 19.0694 12.01ZM11.9994 2C13.3255 2 14.5973 2.52678 15.535 3.46447C16.4727 4.40215 16.9994 5.67392 16.9994 7V12C16.9994 13.3261 16.4727 14.5979 15.535 15.5355C14.5973 16.4732 13.3255 17 11.9994 17C10.6734 17 9.4016 16.4732 8.46391 15.5355C7.52623 14.5979 6.99945 13.3261 6.99945 12V7C6.99945 5.67392 7.52623 4.40215 8.46391 3.46447C9.4016 2.52678 10.6734 2 11.9994 2Z" fill="white"/>
</svg>
