<svg width="484" height="169" viewBox="0 0 484 169" fill="none" xmlns="http://www.w3.org/2000/svg">
<g opacity="0.4">
<path d="M467.841 11.2457C435.117 -0.554474 410.335 27.2511 409.424 58.8328C409.424 59.219 408.599 58.9186 408.252 57.5455C406.689 51.9243 404.563 45.7453 401.394 39.8666C393.539 25.1915 377.654 5.45291 359.339 0.518274C353.48 -1.49849 347.187 2.62086 348.879 8.54242C350.398 13.1767 356.041 14.2923 359.469 16.824C396.751 39.9954 396.837 134.054 353.089 154.479C346.926 156.41 342.977 163.533 349.4 167.91C356.388 170.828 364.634 165.936 371.014 163.662C399.832 151.046 410.031 118.735 416.107 87.7112C416.715 84.6646 417.236 83.1627 417.757 76.383C418.711 64.1536 416.758 48.277 427.088 38.6652C429.909 35.9618 435.898 31.3276 436.115 38.1932C434.683 61.5361 461.244 68.9166 476.912 53.2116C487.936 40.9823 484.073 17.3819 468.449 11.4603L467.885 11.2457H467.841Z" fill="url(#paint0_linear_1081_3236)"/>
<path d="M15.3619 11.2457C48.0861 -0.554474 72.8681 27.2511 73.7795 58.8328C73.7795 59.219 74.6041 58.9186 74.9513 57.5455C76.5137 51.9243 78.6404 45.7453 81.8087 39.8666C89.6642 25.1915 105.549 5.45291 123.864 0.518274C129.723 -1.49849 136.016 2.62086 134.324 8.54242C132.805 13.1767 127.163 14.2923 123.734 16.824C86.4525 39.9954 86.3657 134.054 130.114 154.479C136.277 156.41 140.226 163.533 133.803 167.91C126.815 170.828 118.569 165.936 112.189 163.662C83.3711 151.046 73.1719 118.735 67.0957 87.7112C66.4881 84.6646 65.9673 83.1627 65.4465 76.383C64.4917 64.1536 66.4447 48.277 56.1153 38.6652C53.2943 35.9618 47.3049 31.3276 47.0879 38.1932C48.5201 61.5361 21.9588 68.9166 6.29108 53.2116C-4.73276 40.9823 -0.870087 17.3819 14.7542 11.4603L15.3184 11.2457H15.3619Z" fill="url(#paint1_linear_1081_3236)"/>
</g>
<defs>
<linearGradient id="paint0_linear_1081_3236" x1="414.659" y1="0" x2="414.659" y2="168.813" gradientUnits="userSpaceOnUse">
<stop stop-color="#C5D1FE"/>
<stop offset="1" stop-color="#F1E9CC" stop-opacity="0"/>
</linearGradient>
<linearGradient id="paint1_linear_1081_3236" x1="68.5439" y1="0" x2="68.5439" y2="168.813" gradientUnits="userSpaceOnUse">
<stop stop-color="#C5D1FE"/>
<stop offset="1" stop-color="#F1E9CC" stop-opacity="0"/>
</linearGradient>
</defs>
</svg>
